<svg xmlns="http://www.w3.org/2000/svg" xmlns:xlink="http://www.w3.org/1999/xlink" preserveAspectRatio="xMidYMid" width="21" height="50" viewBox="0 0 21 50">
  <defs>
    <style>
      .cls-1 {
        fill: #b43520;
        fill-rule: evenodd;
      }
    </style>
  </defs>
  <path d="M20.989,10.620 C20.988,13.593 20.970,16.567 20.998,19.539 C21.008,20.560 20.608,21.123 19.651,21.609 C17.818,22.541 16.084,23.669 14.343,24.768 C14.136,24.897 14.039,25.358 14.062,25.653 C14.323,29.108 14.609,32.561 14.903,36.013 C15.108,38.416 15.461,40.815 15.504,43.221 C15.527,44.514 15.189,45.868 14.745,47.100 C14.066,48.982 12.321,50.047 10.349,50.000 C8.312,49.950 6.810,49.032 5.982,47.166 C5.071,45.113 5.083,42.952 5.284,40.776 C5.752,35.724 6.209,30.670 6.702,25.621 C6.780,24.828 6.524,24.378 5.809,24.016 C4.138,23.171 2.513,22.236 0.851,21.374 C0.114,20.991 0.000,20.384 0.001,19.663 C0.010,14.521 0.006,9.380 0.006,4.238 C0.006,3.339 -0.004,2.441 0.008,1.544 C0.024,0.437 0.432,0.006 1.534,0.004 C7.500,-0.006 13.465,-0.006 19.430,0.004 C20.567,0.005 20.991,0.475 20.990,1.606 C20.988,4.611 20.989,7.615 20.989,10.620 ZM6.100,2.021 C6.100,2.622 6.101,3.111 6.100,3.601 C6.100,5.088 6.106,6.575 6.096,8.062 C6.092,8.702 5.784,9.169 5.110,9.193 C4.439,9.216 4.084,8.796 4.063,8.138 C4.047,7.643 4.059,7.146 4.058,6.651 C4.058,5.114 4.058,3.577 4.058,2.063 C3.315,2.063 2.706,2.063 2.095,2.063 C2.095,5.870 2.095,9.595 2.095,13.325 C7.745,13.325 13.318,13.325 18.917,13.325 C18.917,9.534 18.917,5.803 18.917,2.062 C18.249,2.062 17.643,2.062 16.952,2.062 C16.952,2.573 16.980,3.006 16.946,3.433 C16.896,4.051 16.627,4.525 15.910,4.510 C15.194,4.495 14.959,4.004 14.906,3.392 C14.868,2.946 14.856,2.496 14.832,2.043 C13.009,2.043 11.298,2.043 9.493,2.043 C9.493,3.335 9.474,4.567 9.499,5.798 C9.515,6.541 9.291,7.184 8.486,7.197 C7.685,7.211 7.423,6.601 7.442,5.839 C7.474,4.577 7.451,3.315 7.451,2.021 C6.968,2.021 6.599,2.021 6.100,2.021 ZM2.064,18.006 C7.717,18.006 13.311,18.006 18.893,18.006 C18.893,17.104 18.893,16.262 18.893,15.441 C13.243,15.441 7.676,15.441 2.064,15.441 C2.064,16.309 2.064,17.105 2.064,18.006 ZM12.689,44.965 C12.659,43.685 11.591,42.672 10.311,42.706 C9.057,42.740 8.045,43.760 8.052,44.980 C8.060,46.231 9.156,47.276 10.426,47.241 C11.663,47.208 12.716,46.148 12.689,44.965 ZM16.286,20.841 C12.488,20.841 8.786,20.841 5.011,20.841 C7.438,23.495 13.832,23.565 16.286,20.841 Z" class="cls-1"/>
</svg>
