<svg xmlns="http://www.w3.org/2000/svg" xmlns:xlink="http://www.w3.org/1999/xlink" preserveAspectRatio="xMidYMid" width="46" height="46" viewBox="0 0 46 46">
  <defs>
    <style>
      .cls-1 {
        fill: #b43520;
        fill-rule: evenodd;
      }
    </style>
  </defs>
  <path d="M22.964,45.978 C22.173,45.978 21.379,46.019 20.592,45.967 C19.648,45.904 19.214,45.441 19.128,44.518 C19.074,43.927 19.031,43.335 19.001,42.743 C18.964,42.044 18.612,41.634 17.956,41.386 C16.442,40.812 14.939,40.205 13.444,39.582 C12.830,39.326 12.298,39.370 11.790,39.795 C11.301,40.203 10.813,40.613 10.312,41.007 C9.636,41.540 8.955,41.561 8.347,40.981 C7.203,39.887 6.083,38.767 4.990,37.623 C4.407,37.015 4.425,36.332 4.953,35.658 C5.346,35.156 5.754,34.666 6.165,34.178 C6.593,33.671 6.644,33.142 6.387,32.526 C5.764,31.030 5.156,29.525 4.581,28.008 C4.333,27.352 3.923,27.001 3.224,26.963 C2.610,26.931 1.995,26.899 1.385,26.824 C0.527,26.719 0.013,26.126 0.009,25.265 C0.002,23.726 -0.000,22.187 0.010,20.648 C0.016,19.742 0.502,19.217 1.396,19.135 C2.030,19.077 2.667,19.040 3.302,18.995 C3.944,18.949 4.329,18.608 4.561,18.008 C5.161,16.456 5.786,14.914 6.418,13.374 C6.658,12.791 6.636,12.282 6.197,11.792 C5.772,11.318 5.376,10.817 4.983,10.316 C4.487,9.684 4.499,8.989 5.063,8.408 C6.166,7.274 7.285,6.153 8.421,5.051 C8.996,4.493 9.680,4.492 10.326,4.993 C10.830,5.383 11.327,5.783 11.819,6.187 C12.311,6.592 12.825,6.639 13.414,6.396 C14.933,5.767 16.458,5.153 17.993,4.566 C18.623,4.324 18.958,3.917 18.998,3.249 C19.035,2.635 19.065,2.019 19.137,1.409 C19.245,0.510 19.827,0.009 20.737,0.006 C22.254,0.001 23.771,-0.002 25.288,0.007 C26.232,0.013 26.742,0.488 26.832,1.433 C26.887,2.024 26.931,2.616 26.960,3.208 C26.995,3.905 27.334,4.325 27.992,4.575 C29.527,5.159 31.048,5.779 32.567,6.402 C33.129,6.633 33.632,6.601 34.106,6.214 C34.633,5.783 35.152,5.340 35.691,4.923 C36.356,4.410 37.055,4.438 37.651,5.023 C38.766,6.116 39.872,7.218 40.962,8.335 C41.519,8.906 41.542,9.608 41.053,10.246 C40.666,10.752 40.250,11.236 39.847,11.730 C39.320,12.377 39.249,12.907 39.671,13.599 C40.538,15.020 41.129,16.551 41.501,18.164 C41.618,18.671 41.813,18.899 42.368,18.910 C43.111,18.925 43.856,19.031 44.594,19.141 C45.413,19.263 45.934,19.768 45.956,20.585 C46.001,22.188 46.000,23.793 45.953,25.395 C45.930,26.204 45.377,26.726 44.578,26.824 C43.991,26.896 43.396,26.918 42.805,26.963 C41.950,27.029 41.658,27.290 41.360,28.069 C40.797,29.541 40.216,31.006 39.601,32.458 C39.332,33.092 39.346,33.641 39.789,34.174 C40.196,34.664 40.606,35.152 41.000,35.653 C41.535,36.330 41.557,37.004 40.975,37.615 C39.883,38.760 38.764,39.880 37.621,40.975 C37.012,41.559 36.329,41.543 35.656,41.017 C35.154,40.624 34.657,40.223 34.179,39.802 C33.693,39.374 33.175,39.323 32.591,39.558 C31.026,40.190 29.460,40.819 27.888,41.431 C27.307,41.658 27.014,42.065 26.968,42.671 C26.921,43.306 26.897,43.945 26.822,44.576 C26.728,45.378 26.207,45.910 25.401,45.960 C24.591,46.011 23.776,45.971 22.964,45.971 C22.964,45.973 22.964,45.975 22.964,45.978 ZM31.882,23.006 C31.916,18.177 27.882,14.081 23.090,14.078 C18.097,14.076 14.065,18.064 14.080,22.992 C14.095,27.912 18.047,31.835 23.043,31.888 C27.812,31.937 31.848,27.882 31.882,23.006 Z" class="cls-1"/>
</svg>
