<svg xmlns="http://www.w3.org/2000/svg" xmlns:xlink="http://www.w3.org/1999/xlink" preserveAspectRatio="xMidYMid" width="45" height="44" viewBox="0 0 45 44">
  <defs>
    <style>
      .cls-1 {
        fill: #b43520;
        fill-rule: evenodd;
      }
    </style>
  </defs>
  <path d="M0.000,26.639 C0.000,25.531 0.000,24.555 0.000,23.455 C0.969,23.455 1.933,23.455 2.896,23.455 C3.321,23.455 3.747,23.467 4.172,23.451 C4.880,23.425 5.378,22.990 5.394,22.404 C5.410,21.827 4.910,21.365 4.193,21.356 C2.821,21.338 1.449,21.351 0.027,21.351 C0.027,20.271 0.027,19.261 0.027,18.166 C1.070,18.166 2.088,18.172 3.106,18.163 C3.737,18.159 4.237,17.851 4.251,17.244 C4.260,16.887 3.948,16.460 3.661,16.182 C3.495,16.022 3.092,16.070 2.795,16.067 C1.876,16.054 0.956,16.062 0.008,16.062 C0.008,14.974 0.008,13.978 0.008,12.879 C0.871,12.879 1.712,12.879 2.553,12.879 C3.053,12.879 3.554,12.885 4.054,12.877 C4.865,12.864 5.402,12.428 5.396,11.797 C5.390,11.199 4.874,10.786 4.086,10.777 C3.010,10.767 1.934,10.774 0.859,10.774 C0.589,10.774 0.319,10.774 0.013,10.774 C0.013,7.078 0.013,3.466 0.013,-0.002 C14.988,14.646 30.029,29.356 45.000,43.999 C30.175,43.999 15.139,43.999 0.040,43.999 C0.040,42.487 0.040,40.943 0.040,39.318 C1.075,39.318 2.093,39.325 3.112,39.314 C3.700,39.307 4.206,39.043 4.230,38.456 C4.245,38.093 3.972,37.670 3.715,37.365 C3.584,37.210 3.204,37.224 2.935,37.220 C1.988,37.204 1.040,37.213 0.035,37.213 C0.035,36.146 0.035,35.136 0.035,34.030 C1.180,34.030 2.322,34.030 3.464,34.030 C3.714,34.030 3.965,34.040 4.214,34.027 C4.904,33.988 5.408,33.518 5.395,32.939 C5.383,32.386 4.902,31.944 4.226,31.933 C3.101,31.912 1.974,31.926 0.848,31.925 C0.579,31.925 0.310,31.925 0.009,31.925 C0.009,30.841 0.009,29.845 0.009,28.742 C1.043,28.742 2.063,28.797 3.072,28.714 C3.457,28.682 3.919,28.409 4.149,28.103 C4.308,27.892 4.257,27.326 4.069,27.120 C3.825,26.855 3.359,26.684 2.976,26.659 C2.009,26.596 1.035,26.639 0.000,26.639 ZM10.826,32.892 C14.562,32.892 18.214,32.892 22.056,32.892 C18.259,29.356 14.592,25.942 10.826,22.435 C10.826,26.024 10.826,29.437 10.826,32.892 Z" class="cls-1"/>
</svg>
