<svg xmlns="http://www.w3.org/2000/svg" xmlns:xlink="http://www.w3.org/1999/xlink" preserveAspectRatio="xMidYMid" width="45" height="44" viewBox="0 0 45 44">
  <defs>
    <style>
      .cls-1 {
        fill: #b43520;
        fill-rule: evenodd;
      }
    </style>
  </defs>
  <path d="M44.990,40.575 C44.956,42.809 43.848,43.979 41.650,43.982 C28.881,43.999 16.112,43.999 3.344,43.982 C1.146,43.979 0.004,42.780 0.003,40.580 C-0.003,30.638 -0.005,20.695 0.005,10.753 C0.008,7.417 2.151,4.847 5.452,4.328 C10.163,3.588 14.887,2.932 19.606,2.239 C24.434,1.528 29.265,0.838 34.088,0.097 C36.930,-0.340 38.953,1.320 38.992,4.219 C39.008,5.396 38.995,6.574 38.995,7.911 C39.934,7.911 40.671,7.905 41.407,7.912 C43.890,7.933 44.989,9.026 44.991,11.528 C44.999,19.837 44.994,28.147 44.994,36.457 C44.994,37.830 45.010,39.203 44.990,40.575 ZM34.890,4.040 C26.687,5.250 18.595,6.444 10.503,7.638 C10.509,7.693 10.516,7.748 10.522,7.804 C18.655,7.804 26.788,7.804 34.890,7.804 C34.890,6.496 34.890,5.298 34.890,4.040 ZM40.912,11.983 C28.595,11.983 16.358,11.983 4.076,11.983 C4.076,21.325 4.076,30.616 4.076,39.901 C16.392,39.901 28.630,39.901 40.930,39.901 C40.930,37.575 40.930,35.331 40.930,32.966 C39.407,32.966 37.935,32.970 36.463,32.964 C35.093,32.958 33.712,33.052 32.357,32.905 C29.447,32.588 27.257,29.905 27.022,26.424 C26.755,22.479 29.475,18.609 33.849,18.907 C36.165,19.064 38.500,18.935 40.912,18.935 C40.912,16.537 40.912,14.290 40.912,11.983 ZM40.939,22.969 C38.199,22.969 35.511,22.937 32.824,23.005 C32.433,23.014 31.965,23.430 31.684,23.780 C30.768,24.922 30.775,27.014 31.699,28.141 C31.983,28.487 32.455,28.889 32.850,28.900 C35.535,28.965 38.222,28.934 40.939,28.934 C40.939,26.900 40.939,24.985 40.939,22.969 ZM33.055,24.024 C34.034,24.024 34.968,24.024 35.949,24.024 C35.949,25.319 35.949,26.566 35.949,27.885 C35.017,27.885 34.108,27.885 33.055,27.885 C33.055,26.578 33.055,25.341 33.055,24.024 Z" class="cls-1"/>
</svg>
