<svg xmlns="http://www.w3.org/2000/svg" xmlns:xlink="http://www.w3.org/1999/xlink" preserveAspectRatio="xMidYMid" width="12" height="20" viewBox="0 0 12 20">
  <defs>
    <style>
      .cls-1 {
        fill: #4c4c4c;
        fill-rule: evenodd;
      }
    </style>
  </defs>
  <path d="M11.999,18.155 C11.999,19.254 11.271,19.998 10.194,19.999 C7.398,20.000 4.602,20.000 1.806,19.999 C0.729,19.998 0.001,19.253 0.001,18.156 C0.000,15.437 0.000,12.719 0.000,10.000 C0.000,7.291 0.000,4.583 0.001,1.875 C0.001,0.732 0.716,0.001 1.835,0.001 C4.611,-0.000 7.388,-0.000 10.164,0.001 C11.283,0.001 11.999,0.731 11.999,1.874 C12.000,7.301 12.000,12.728 11.999,18.155 ZM1.290,18.043 C1.290,18.591 1.396,18.700 1.926,18.700 C4.640,18.700 7.354,18.700 10.068,18.700 C10.157,18.700 10.248,18.708 10.335,18.694 C10.542,18.660 10.695,18.543 10.699,18.321 C10.710,17.732 10.703,17.142 10.703,16.538 C7.560,16.538 4.445,16.538 1.290,16.538 C1.290,17.060 1.290,17.552 1.290,18.043 ZM10.693,15.209 C10.693,11.301 10.693,7.410 10.693,3.499 C7.550,3.499 4.426,3.499 1.308,3.499 C1.308,7.413 1.308,11.304 1.308,15.209 C4.443,15.209 7.559,15.209 10.693,15.209 ZM9.986,1.299 C7.488,1.299 4.990,1.299 2.493,1.299 C2.235,1.299 1.977,1.292 1.720,1.302 C1.467,1.312 1.313,1.449 1.295,1.712 C1.285,1.851 1.293,1.990 1.293,2.153 C4.450,2.153 7.567,2.153 10.681,2.153 C10.775,1.442 10.656,1.299 9.986,1.299 ZM6.009,18.266 C5.669,18.272 5.362,17.969 5.356,17.621 C5.351,17.275 5.648,16.965 5.991,16.959 C6.332,16.953 6.638,17.255 6.644,17.603 C6.649,17.950 6.353,18.259 6.009,18.266 Z" class="cls-1"/>
</svg>
