<svg xmlns="http://www.w3.org/2000/svg" xmlns:xlink="http://www.w3.org/1999/xlink" preserveAspectRatio="xMidYMid" width="40" height="40" viewBox="0 0 40 40">
  <defs>
    <style>
      .cls-1 {
        fill: #b43520;
        fill-rule: evenodd;
      }
    </style>
  </defs>
  <path d="M0.000,37.714 C0.000,25.154 0.000,12.658 0.000,0.117 C0.153,0.103 0.310,0.076 0.466,0.075 C1.125,0.071 1.785,0.071 2.444,0.073 C3.392,0.077 4.437,-0.164 5.259,0.159 C6.052,0.470 6.602,1.378 7.287,1.994 C7.463,2.153 7.738,2.239 7.980,2.279 C9.519,2.535 10.798,2.128 11.698,0.789 C12.118,0.164 12.715,0.030 13.453,0.056 C15.017,0.111 16.585,0.054 18.151,0.089 C18.457,0.097 18.768,0.299 19.059,0.446 C19.199,0.517 19.318,0.655 19.411,0.788 C20.308,2.069 21.529,2.572 23.066,2.279 C23.346,2.226 23.661,2.132 23.863,1.950 C24.520,1.360 25.032,0.470 25.790,0.172 C26.594,-0.145 27.615,0.083 28.541,0.073 C28.747,0.071 28.954,0.072 29.160,0.073 C30.107,0.077 31.153,-0.164 31.974,0.159 C32.768,0.470 33.315,1.382 34.004,1.992 C34.193,2.160 34.501,2.271 34.757,2.274 C36.487,2.299 38.217,2.287 39.997,2.287 C39.997,14.819 39.997,27.329 39.997,39.928 C39.821,39.928 39.625,39.928 39.429,39.928 C37.286,39.928 35.142,39.917 32.999,39.938 C32.591,39.941 32.287,39.836 32.039,39.523 C31.938,39.395 31.809,39.289 31.693,39.173 C30.155,37.642 30.154,37.637 27.959,37.723 C27.758,37.731 27.562,37.871 27.366,37.955 C27.330,37.970 27.306,38.010 27.277,38.039 C26.647,38.659 26.118,39.532 25.361,39.830 C24.557,40.146 23.536,39.922 22.609,39.927 C21.661,39.932 20.712,39.898 19.766,39.940 C19.265,39.963 18.890,39.830 18.596,39.435 C18.523,39.337 18.423,39.259 18.335,39.173 C16.797,37.642 16.797,37.637 14.602,37.723 C14.401,37.731 14.204,37.871 14.008,37.955 C13.973,37.970 13.949,38.010 13.919,38.039 C13.290,38.659 12.761,39.532 12.003,39.830 C11.199,40.146 10.178,39.922 9.252,39.927 C8.304,39.932 7.354,39.898 6.408,39.940 C5.907,39.963 5.524,39.836 5.241,39.433 C4.215,37.971 2.822,37.411 1.057,37.706 C0.737,37.760 0.400,37.714 0.000,37.714 ZM18.339,34.370 C18.339,34.051 18.339,33.787 18.339,33.523 C18.339,24.075 18.339,14.627 18.339,5.179 C18.339,4.033 17.696,3.394 16.543,3.394 C15.822,3.394 15.101,3.393 14.380,3.394 C13.494,3.395 12.775,4.112 12.775,4.999 C12.774,14.570 12.774,24.141 12.776,33.712 C12.776,33.927 12.798,34.142 12.811,34.370 C14.665,34.370 16.452,34.370 18.339,34.370 ZM31.696,34.372 C31.696,34.032 31.696,33.748 31.696,33.464 C31.696,24.057 31.696,14.650 31.696,5.243 C31.696,4.008 31.080,3.394 29.842,3.394 C29.141,3.394 28.441,3.393 27.740,3.394 C26.851,3.395 26.133,4.108 26.133,4.997 C26.132,14.567 26.132,24.139 26.134,33.710 C26.134,33.925 26.156,34.140 26.169,34.372 C28.021,34.372 29.808,34.372 31.696,34.372 ZM10.498,36.584 C10.498,26.240 10.498,15.946 10.498,5.645 C9.387,5.645 8.325,5.645 7.257,5.645 C7.257,15.975 7.257,26.269 7.257,36.584 C8.351,36.584 9.396,36.584 10.498,36.584 ZM20.618,5.630 C20.618,15.979 20.618,26.272 20.618,36.568 C21.732,36.568 22.794,36.568 23.853,36.568 C23.853,26.236 23.853,15.943 23.853,5.630 C22.757,5.630 21.712,5.630 20.618,5.630 ZM33.967,5.628 C33.967,15.973 33.967,26.264 33.967,36.558 C34.903,36.558 35.794,36.558 36.659,36.558 C36.659,26.218 36.659,15.926 36.659,5.628 C35.751,5.628 34.890,5.628 33.967,5.628 ZM3.357,3.421 C3.357,13.767 3.357,24.065 3.357,34.357 C3.909,34.357 4.416,34.357 4.942,34.357 C4.957,34.183 4.979,34.044 4.979,33.903 C4.981,24.208 4.982,14.514 4.978,4.819 C4.978,4.090 4.147,3.376 3.357,3.421 Z" class="cls-1"/>
</svg>
