<svg xmlns="http://www.w3.org/2000/svg" xmlns:xlink="http://www.w3.org/1999/xlink" preserveAspectRatio="xMidYMid" width="18" height="18" viewBox="0 0 18 18">
  <defs>
    <style>
      .cls-1 {
        fill: #4c4c4c;
        fill-rule: evenodd;
      }
    </style>
  </defs>
  <path d="M12.089,13.368 C8.607,15.981 4.048,15.177 1.640,12.148 C-0.747,9.146 -0.500,4.812 2.209,2.170 C4.986,-0.539 9.231,-0.738 12.234,1.723 C15.207,4.158 15.936,8.665 13.391,12.054 C13.454,12.121 13.520,12.193 13.589,12.263 C14.941,13.615 16.292,14.967 17.646,16.317 C17.947,16.616 18.086,16.956 17.944,17.371 C17.737,17.979 16.997,18.195 16.490,17.800 C16.404,17.733 16.326,17.654 16.249,17.576 C14.920,16.249 13.591,14.922 12.265,13.593 C12.200,13.528 12.150,13.447 12.089,13.368 ZM1.882,7.485 C1.871,10.501 4.365,13.026 7.333,13.073 C10.488,13.124 13.053,10.617 13.064,7.481 C13.074,4.427 10.583,1.902 7.547,1.889 C4.386,1.875 1.893,4.338 1.882,7.485 Z" class="cls-1"/>
</svg>
