<svg xmlns="http://www.w3.org/2000/svg" xmlns:xlink="http://www.w3.org/1999/xlink" preserveAspectRatio="xMidYMid" width="50" height="30" viewBox="0 0 50 30">
  <defs>
    <style>
      .cls-1 {
        fill: #b43520;
        fill-rule: evenodd;
      }
    </style>
  </defs>
  <path d="M49.997,23.898 C49.997,25.628 49.486,26.130 47.729,26.131 C46.906,26.132 46.081,26.099 45.262,26.151 C45.029,26.167 44.702,26.374 44.602,26.582 C43.560,28.758 41.870,29.989 39.453,29.998 C37.030,30.008 35.348,28.759 34.279,26.607 C34.168,26.385 33.808,26.152 33.563,26.151 C28.216,26.125 22.868,26.135 17.520,26.123 C17.132,26.122 16.950,26.239 16.782,26.607 C15.793,28.770 14.095,29.976 11.712,29.998 C9.290,30.021 7.569,28.803 6.552,26.623 C6.364,26.219 6.154,26.115 5.745,26.122 C4.460,26.146 3.175,26.138 1.889,26.128 C0.627,26.120 0.002,25.491 0.001,24.214 C-0.003,16.801 -0.004,9.388 0.001,1.975 C0.002,0.616 0.628,-0.001 1.991,-0.002 C11.581,-0.005 21.170,-0.005 30.760,-0.001 C32.181,-0.001 32.757,0.574 32.787,2.017 C32.807,2.968 32.791,3.919 32.791,4.992 C33.177,4.992 33.454,4.992 33.732,4.992 C36.148,4.992 38.566,5.038 40.982,4.980 C43.796,4.911 45.938,6.124 47.586,8.304 C49.185,10.418 50.007,12.812 49.999,15.481 C49.990,18.286 49.998,21.092 49.997,23.898 ZM11.631,26.669 C12.899,26.683 13.906,25.684 13.885,24.435 C13.864,23.207 12.884,22.246 11.659,22.250 C10.429,22.254 9.450,23.223 9.441,24.447 C9.431,25.669 10.404,26.656 11.631,26.669 ZM29.399,3.399 C20.730,3.399 12.099,3.399 3.393,3.399 C3.393,9.886 3.393,16.324 3.393,22.810 C4.212,22.810 4.958,22.780 5.700,22.820 C6.187,22.846 6.415,22.659 6.619,22.222 C7.602,20.120 9.286,18.952 11.593,18.920 C13.903,18.886 15.627,20.010 16.650,22.091 C16.916,22.633 17.192,22.830 17.798,22.825 C21.372,22.794 24.947,22.810 28.522,22.810 C28.798,22.810 29.075,22.810 29.399,22.810 C29.399,16.295 29.399,9.873 29.399,3.399 ZM39.375,26.669 C40.644,26.700 41.664,25.717 41.662,24.467 C41.660,23.241 40.690,22.262 39.468,22.252 C38.232,22.241 37.250,23.185 37.218,24.415 C37.186,25.630 38.152,26.639 39.375,26.669 ZM45.028,10.457 C44.416,9.578 43.679,8.703 42.606,8.549 C41.032,8.323 39.421,8.352 37.833,8.273 C37.833,10.254 37.833,12.042 37.833,13.863 C40.722,13.863 43.560,13.863 46.460,13.863 C46.250,12.576 45.736,11.472 45.028,10.457 ZM46.643,17.249 C46.258,17.249 45.955,17.249 45.653,17.249 C42.621,17.248 39.589,17.259 36.557,17.244 C35.020,17.237 34.439,16.646 34.437,15.154 C34.435,13.559 34.437,11.964 34.437,10.369 C34.437,9.711 34.437,9.052 34.437,8.404 C33.831,8.404 33.335,8.404 32.842,8.404 C32.842,13.216 32.842,17.965 32.842,22.773 C33.397,22.709 33.970,23.133 34.323,22.352 C35.315,20.157 37.037,18.920 39.446,18.920 C41.857,18.920 43.552,20.177 44.585,22.350 C44.670,22.530 44.865,22.764 45.029,22.781 C45.551,22.837 46.083,22.802 46.643,22.802 C46.643,20.915 46.643,19.149 46.643,17.249 ZM24.739,8.830 C24.415,8.946 24.029,8.903 23.671,8.903 C18.766,8.907 13.862,8.907 8.957,8.905 C8.650,8.903 8.341,8.893 8.037,8.853 C7.161,8.737 6.538,8.006 6.577,7.166 C6.618,6.284 7.243,5.624 8.150,5.577 C8.918,5.537 9.690,5.560 10.460,5.559 C12.438,5.558 14.415,5.558 16.392,5.558 C16.392,5.559 16.392,5.561 16.392,5.561 C19.063,5.561 21.733,5.563 24.404,5.561 C25.113,5.560 25.636,5.861 25.951,6.501 C26.237,7.084 26.226,7.684 25.804,8.162 C25.535,8.466 25.127,8.690 24.739,8.830 ZM12.152,11.130 C14.206,11.108 16.260,11.123 18.315,11.123 C18.315,11.125 18.315,11.126 18.315,11.128 C20.369,11.128 22.423,11.127 24.477,11.128 C25.162,11.129 25.648,11.456 25.950,12.061 C26.240,12.642 26.224,13.251 25.802,13.721 C25.518,14.036 25.077,14.304 24.665,14.390 C24.071,14.513 23.440,14.465 22.824,14.466 C19.512,14.471 16.199,14.468 12.887,14.467 C12.605,14.467 12.321,14.467 12.042,14.436 C11.053,14.324 10.422,13.614 10.474,12.689 C10.523,11.789 11.185,11.140 12.152,11.130 Z" class="cls-1"/>
</svg>
